<svg xmlns="http://www.w3.org/2000/svg" viewBox="0 0 220 220" role="img" aria-labelledby="title desc">
  <title id="title">Happy algebra guide avatar</title>
  <desc id="desc">A delighted wizard cheering you on.</desc>
  <defs>
    <linearGradient id="hatGradientHappy" x1="0%" y1="0%" x2="100%" y2="100%">
      <stop offset="0%" stop-color="#5c8cff" />
      <stop offset="100%" stop-color="#3553b5" />
    </linearGradient>
    <linearGradient id="robeGradientHappy" x1="0%" y1="0%" x2="0%" y2="100%">
      <stop offset="0%" stop-color="#2fc783" />
      <stop offset="100%" stop-color="#1f9a67" />
    </linearGradient>
    <radialGradient id="glowHappy" cx="50%" cy="50%" r="60%">
      <stop offset="0%" stop-color="#f7fff4" stop-opacity="0.95" />
      <stop offset="100%" stop-color="#d6f6e5" stop-opacity="0.55" />
    </radialGradient>
  </defs>
  <rect width="220" height="220" rx="26" fill="#f8f7ff" />
  <circle cx="110" cy="118" r="92" fill="url(#glowHappy)" />
  <g transform="translate(40 28)">
    <path d="M70 24c16-10 64-10 84 18l-12 8-8-7-18 8-18-5-20 2z" fill="url(#hatGradientHappy)" stroke="#243367" stroke-width="3" stroke-linejoin="round" />
    <circle cx="142" cy="48" r="6" fill="#ffd76e" stroke="#f0b83c" stroke-width="2" />
    <rect x="80" y="48" width="64" height="12" rx="4" fill="#fff8d9" opacity="0.65" />
    <path d="M86 58c-3 12-5 26-5 40 0 30 22 52 52 52s52-22 52-52c0-14-2-28-5-40z" fill="#ffe7c9" stroke="#d6a36b" stroke-width="3" />
    <circle cx="118" cy="92" r="4.5" fill="#2c2b48" />
    <circle cx="150" cy="92" r="4.5" fill="#2c2b48" />
    <path d="M118 104c6 10 14 14 24 14s18-4 24-14" fill="none" stroke="#c2763a" stroke-width="4" stroke-linecap="round" />
    <path d="M118 116c10 12 18 16 24 16s14-4 24-16" fill="none" stroke="#e07a3f" stroke-width="4" stroke-linecap="round" />
    <circle cx="110" cy="106" r="4" fill="#f49ea1" opacity="0.8" />
    <circle cx="158" cy="106" r="4" fill="#f49ea1" opacity="0.8" />
    <path d="M112 120c12 24 22 38 26 46 4-8 14-22 26-46" fill="#fff" stroke="#e0c28f" stroke-width="3" stroke-linecap="round" />
    <path d="M80 144c3-24 12-50 22-62 5-6 18-7 22 1-12 14-20 32-24 52z" fill="url(#robeGradientHappy)" stroke="#1e8256" stroke-width="3" />
    <path d="M188 144c-3-24-12-50-22-62-5-6-18-7-22 1 12 14 20 32 24 52z" fill="url(#robeGradientHappy)" stroke="#1e8256" stroke-width="3" />
    <path d="M106 160c-2 28 8 46 52 46s54-18 52-46" fill="url(#robeGradientHappy)" stroke="#186143" stroke-width="4" stroke-linejoin="round" />
    <path d="M64 170c-22 4-42 14-52 28 16 18 48 30 88 30s72-12 88-30c-10-14-30-24-52-28" fill="#4ac07f" opacity="0.35" />
    <text x="122" y="40" font-family="Georgia,serif" font-size="14" fill="#f7d96b">π</text>
    <text x="144" y="54" font-family="Georgia,serif" font-size="12" fill="#f7d96b">×</text>
    <text x="96" y="52" font-family="Georgia,serif" font-size="12" fill="#f7d96b">+</text>
  </g>
</svg>
