<svg xmlns="http://www.w3.org/2000/svg" width="420" height="420" viewBox="0 0 420 420" role="img" aria-labelledby="title desc">
  <title id="title">Celebrating algebra wizard</title>
  <desc id="desc">A jubilant wizard surrounded by colorful sparkles.</desc>
  <defs>
    <linearGradient id="hatCelebrate" x1="0%" y1="0%" x2="100%" y2="100%">
      <stop offset="0%" stop-color="#3d7be0"/>
      <stop offset="100%" stop-color="#25489c"/>
    </linearGradient>
    <radialGradient id="sparkles" cx="50%" cy="50%" r="65%">
      <stop offset="0%" stop-color="#ffe4a5" stop-opacity="0.9"/>
      <stop offset="50%" stop-color="#ffd6f5" stop-opacity="0.35"/>
      <stop offset="100%" stop-color="#c8d6ff" stop-opacity="0.15"/>
    </radialGradient>
    <linearGradient id="robeCelebrate" x1="0%" y1="0%" x2="0%" y2="100%">
      <stop offset="0%" stop-color="#308ad4"/>
      <stop offset="100%" stop-color="#1b5fa5"/>
    </linearGradient>
  </defs>
  <rect width="420" height="420" rx="38" fill="#fbfaff"/>
  <circle cx="210" cy="210" r="180" fill="url(#sparkles)"/>
  <g transform="translate(52 46)">
    <path d="M142 54c28-18 86-20 116 32l-18 12-10-10-20 12-22-8-28 4z" fill="url(#hatCelebrate)" stroke="#20386b" stroke-width="4" stroke-linejoin="round"/>
    <path d="M158 82l118 10-24-58z" fill="#2d5fb6" opacity="0.65"/>
    <path d="M176 102c-4 18-8 36-8 54 0 42 32 74 72 74s72-32 72-74c0-18-4-36-8-54z" fill="#ffe4c4" stroke="#d6a36b" stroke-width="4"/>
    <circle cx="206" cy="140" r="7" fill="#2c2b48"/>
    <circle cx="258" cy="140" r="7" fill="#2c2b48"/>
    <path d="M192 154c14 10 26 14 40 14s26-4 40-14" fill="none" stroke="#d68c4d" stroke-width="6" stroke-linecap="round"/>
    <path d="M210 174c8 16 16 22 26 22s18-6 26-22" fill="none" stroke="#b35f2f" stroke-width="5" stroke-linecap="round"/>
    <path d="M196 192c12 28 26 48 36 64 10-16 24-36 36-64" fill="#fff" stroke="#d9b88c" stroke-width="4" stroke-linecap="round"/>
    <path d="M160 226c4-32 14-66 26-82 6-8 24-10 30 2-18 18-28 40-34 64z" fill="url(#robeCelebrate)" stroke="#1e4c82" stroke-width="4"/>
    <path d="M324 226c-4-32-14-66-26-82-6-8-24-10-30 2 18 18 28 40 34 64z" fill="url(#robeCelebrate)" stroke="#1e4c82" stroke-width="4"/>
    <path d="M188 256c-2 42 10 66 72 66s74-24 72-66" fill="url(#robeCelebrate)" stroke="#1c3c68" stroke-width="5" stroke-linejoin="round"/>
    <path d="M304 112l24-14c18 8 24 24 16 38-8 18-28 24-40 10z" fill="#f7e4a8" stroke="#d6ba63" stroke-width="4"/>
    <path d="M322 118c2-16 12-20 20-10" fill="none" stroke="#d6a36b" stroke-width="4" stroke-linecap="round"/>
    <text x="224" y="46" font-family="Georgia,serif" font-size="22" fill="#f9d76e">π</text>
    <text x="252" y="68" font-family="Georgia,serif" font-size="18" fill="#f9d76e">×</text>
    <text x="184" y="64" font-family="Georgia,serif" font-size="18" fill="#f9d76e">+</text>
    <g fill="#f7d35b" opacity="0.9">
      <circle cx="60" cy="120" r="6"/>
      <circle cx="90" cy="80" r="4"/>
      <circle cx="70" cy="170" r="5"/>
      <circle cx="330" cy="70" r="5"/>
      <circle cx="332" cy="210" r="6"/>
      <circle cx="300" cy="250" r="4"/>
      <circle cx="90" cy="250" r="4"/>
      <circle cx="110" cy="210" r="5"/>
    </g>
    <g fill="#7fd8ff" opacity="0.7">
      <circle cx="82" cy="138" r="5"/>
      <circle cx="60" cy="220" r="4"/>
      <circle cx="330" cy="110" r="5"/>
      <circle cx="308" cy="182" r="6"/>
    </g>
    <g fill="#f08fe3" opacity="0.7">
      <circle cx="96" cy="108" r="4"/>
      <circle cx="122" cy="238" r="5"/>
      <circle cx="294" cy="94" r="4"/>
      <circle cx="338" cy="172" r="5"/>
    </g>
  </g>
  <g transform="translate(24 280)" fill="#6b55c1" opacity="0.35">
    <path d="M112 6c-36 10-64 30-80 52 28 34 82 58 154 58s126-24 154-58c-16-22-44-42-80-52"/>
  </g>
</svg>
