<svg xmlns="http://www.w3.org/2000/svg" width="420" height="420" viewBox="0 0 420 420" role="img" aria-labelledby="title desc">
  <title id="title">Smiling algebra wizard</title>
  <desc id="desc">A joyful math wizard with a glowing staff.</desc>
  <defs>
    <linearGradient id="hatHappy" x1="0%" y1="0%" x2="100%" y2="100%">
      <stop offset="0%" stop-color="#3f6fe0"/>
      <stop offset="100%" stop-color="#274a9a"/>
    </linearGradient>
    <radialGradient id="glowHappy" cx="50%" cy="45%" r="60%">
      <stop offset="0%" stop-color="#fff5d6" stop-opacity="0.9"/>
      <stop offset="100%" stop-color="#d3c6ff" stop-opacity="0.2"/>
    </radialGradient>
    <linearGradient id="robeHappy" x1="0%" y1="0%" x2="0%" y2="100%">
      <stop offset="0%" stop-color="#2f8bd9"/>
      <stop offset="100%" stop-color="#1e5fa8"/>
    </linearGradient>
  </defs>
  <rect width="420" height="420" rx="38" fill="#f8f7ff"/>
  <circle cx="210" cy="190" r="160" fill="url(#glowHappy)"/>
  <g transform="translate(50 60)">
    <path d="M146 46c26-16 82-18 110 32l-18 10-9-8-20 10-21-7-26 3z" fill="url(#hatHappy)" stroke="#1d2f63" stroke-width="4" stroke-linejoin="round"/>
    <path d="M160 70l112 10-20-52z" fill="#2a59b2" opacity="0.7"/>
    <path d="M176 94c-4 16-8 34-8 50 0 40 30 70 70 70s70-30 70-70c0-16-4-34-8-50z" fill="#ffe1bf" stroke="#d6a36b" stroke-width="4"/>
    <path d="M190 138c12 10 22 14 32 14s20-4 32-14" fill="none" stroke="#d68c4d" stroke-width="6" stroke-linecap="round"/>
    <circle cx="206" cy="130" r="6" fill="#2c2b48"/>
    <circle cx="254" cy="130" r="6" fill="#2c2b48"/>
    <path d="M208 160c6 12 14 16 24 16s18-4 24-16" fill="none" stroke="#b35f2f" stroke-width="5" stroke-linecap="round"/>
    <path d="M198 186c12 26 24 44 34 58 10-14 22-32 34-58" fill="#fff" stroke="#d9b88c" stroke-width="4" stroke-linecap="round"/>
    <path d="M158 210c4-32 14-66 26-82 6-8 24-10 30 2-18 18-28 40-34 64z" fill="url(#robeHappy)" stroke="#1f4a82" stroke-width="4"/>
    <path d="M318 210c-4-32-14-66-26-82-6-8-24-10-30 2 18 18 28 40 34 64z" fill="url(#robeHappy)" stroke="#1f4a82" stroke-width="4"/>
    <path d="M190 240c-2 38 8 62 62 62s64-24 62-62" fill="url(#robeHappy)" stroke="#1c3968" stroke-width="5" stroke-linejoin="round"/>
    <path d="M310 116l20-12c16 6 22 20 16 34-6 16-24 22-36 12z" fill="#f9e8b3" stroke="#e0c06b" stroke-width="4"/>
    <path d="M324 120c0-14 10-18 18-10" fill="none" stroke="#d6a36b" stroke-width="4" stroke-linecap="round"/>
    <text x="222" y="44" font-family="Georgia,serif" font-size="20" fill="#f9d76e">π</text>
    <text x="250" y="64" font-family="Georgia,serif" font-size="16" fill="#f9d76e">×</text>
    <text x="186" y="62" font-family="Georgia,serif" font-size="16" fill="#f9d76e">+</text>
  </g>
  <g transform="translate(20 260)" fill="#6b55c1" opacity="0.45">
    <path d="M116 12c-36 8-64 26-80 46 28 30 82 52 154 52s126-22 154-52c-16-20-44-38-80-46"/>
  </g>
</svg>
