<svg xmlns="http://www.w3.org/2000/svg" viewBox="0 0 220 220" role="img" aria-labelledby="title desc">
  <title id="title">Thoughtful algebra guide avatar</title>
  <desc id="desc">A wizard pondering the next move.</desc>
  <defs>
    <linearGradient id="hatGradientThinking" x1="0%" y1="0%" x2="100%" y2="100%">
      <stop offset="0%" stop-color="#3d4f9f" />
      <stop offset="100%" stop-color="#1f2c63" />
    </linearGradient>
    <linearGradient id="robeGradientThinking" x1="0%" y1="0%" x2="0%" y2="100%">
      <stop offset="0%" stop-color="#f6c14a" />
      <stop offset="100%" stop-color="#d29625" />
    </linearGradient>
    <radialGradient id="glowThinking" cx="50%" cy="50%" r="60%">
      <stop offset="0%" stop-color="#fff8e1" stop-opacity="0.9" />
      <stop offset="100%" stop-color="#e8ddc1" stop-opacity="0.6" />
    </radialGradient>
  </defs>
  <rect width="220" height="220" rx="26" fill="#f8f7ff" />
  <circle cx="110" cy="118" r="92" fill="url(#glowThinking)" />
  <g transform="translate(40 28)">
    <path d="M70 24c16-10 64-10 84 18l-12 8-8-7-18 8-18-5-20 2z" fill="url(#hatGradientThinking)" stroke="#111a3a" stroke-width="3" stroke-linejoin="round" />
    <circle cx="142" cy="48" r="6" fill="#ffd76e" stroke="#f0b83c" stroke-width="2" />
    <rect x="80" y="48" width="64" height="12" rx="4" fill="#fff8d9" opacity="0.65" />
    <path d="M86 58c-3 12-5 26-5 40 0 30 22 52 52 52s52-22 52-52c0-14-2-28-5-40z" fill="#ffe7c9" stroke="#d6a36b" stroke-width="3" />
    <circle cx="118" cy="92" r="4.5" fill="#2c2b48" />
    <circle cx="150" cy="92" r="4.5" fill="#2c2b48" />
    <path d="M120 108c8 4 14 5 18 5s10-1 18-5" fill="none" stroke="#c2763a" stroke-width="4" stroke-linecap="round" />
    <path d="M118 112c6 12 10 18 10 22 0 4-4 8-12 8" fill="none" stroke="#b36c2f" stroke-width="4" stroke-linecap="round" />
    <path d="M112 122c12 24 22 38 26 46 4-8 14-22 26-46" fill="#fff" stroke="#e0c28f" stroke-width="3" stroke-linecap="round" />
    <path d="M80 144c3-24 12-50 22-62 5-6 18-7 22 1-12 14-20 32-24 52z" fill="url(#robeGradientThinking)" stroke="#a56c18" stroke-width="3" />
    <path d="M188 144c-3-24-12-50-22-62-5-6-18-7-22 1 12 14 20 32 24 52z" fill="url(#robeGradientThinking)" stroke="#a56c18" stroke-width="3" />
    <path d="M106 160c-2 28 8 46 52 46s54-18 52-46" fill="url(#robeGradientThinking)" stroke="#8a530f" stroke-width="4" stroke-linejoin="round" />
    <path d="M64 170c-22 4-42 14-52 28 16 18 48 30 88 30s72-12 88-30c-10-14-30-24-52-28" fill="#f6c14a" opacity="0.25" />
    <text x="122" y="40" font-family="Georgia,serif" font-size="14" fill="#f7d96b">π</text>
    <text x="144" y="54" font-family="Georgia,serif" font-size="12" fill="#f7d96b">×</text>
    <text x="96" y="52" font-family="Georgia,serif" font-size="12" fill="#f7d96b">+</text>
  </g>
</svg>
